<?xml version="1.0" encoding="UTF-8"?>
<svg id="Layer_1" data-name="Layer 1" xmlns="http://www.w3.org/2000/svg" xmlns:xlink="http://www.w3.org/1999/xlink" viewBox="0 0 840.61 374.77">
  <defs>
    <style>
      .cls-1 {
        fill: url(#linear-gradient-12);
      }

      .cls-1, .cls-2, .cls-3, .cls-4, .cls-5, .cls-6, .cls-7, .cls-8, .cls-9, .cls-10, .cls-11, .cls-12 {
        stroke-width: 0px;
      }

      .cls-2 {
        fill: #000;
      }

      .cls-13 {
        clip-path: url(#clippath-2);
      }

      .cls-3 {
        fill: url(#linear-gradient-11);
      }

      .cls-14, .cls-5 {
        fill: url(#linear-gradient);
      }

      .cls-14, .cls-15, .cls-16, .cls-17 {
        fill-rule: evenodd;
      }

      .cls-4, .cls-5, .cls-8, .cls-10 {
        clip-rule: evenodd;
      }

      .cls-4, .cls-17 {
        fill: url(#linear-gradient-3);
      }

      .cls-18 {
        clip-path: url(#clippath-1);
      }

      .cls-15 {
        fill: url(#linear-gradient-5);
      }

      .cls-6 {
        fill: url(#linear-gradient-2);
      }

      .cls-7 {
        fill: url(#linear-gradient-7);
      }

      .cls-19 {
        clip-path: url(#clippath);
      }

      .cls-8 {
        fill: url(#linear-gradient-9);
      }

      .cls-20 {
        clip-path: url(#clippath-3);
      }

      .cls-9 {
        fill: #fff;
      }

      .cls-10 {
        fill: url(#linear-gradient-6);
      }

      .cls-11 {
        fill: url(#linear-gradient-10);
      }

      .cls-16 {
        fill: url(#linear-gradient-8);
      }

      .cls-12 {
        fill: url(#linear-gradient-4);
      }
    </style>
    <linearGradient id="linear-gradient" x1="161.68" y1="237.62" x2="288.86" y2="237.62" gradientUnits="userSpaceOnUse">
      <stop offset="0" stop-color="#1db9ab"/>
      <stop offset="1" stop-color="#71cbd3"/>
      <stop offset="1" stop-color="#6fcbdc"/>
    </linearGradient>
    <clipPath id="clippath">
      <path class="cls-5" d="M161.69,224.69c.87,72.74,55.04,133.81,127.17,143.34-48.78-20.33-85.4-62.1-99.19-113.13-13.78-51.02-3.17-105.55,28.74-147.68-35.24,27.32-57.29,70.2-56.73,117.47"/>
    </clipPath>
    <linearGradient id="linear-gradient-2" x1="277.06" y1="322.04" x2="201.71" y2="199.88" xlink:href="#linear-gradient"/>
    <linearGradient id="linear-gradient-3" x1="183.76" y1="223.19" x2="288.86" y2="223.19" gradientUnits="userSpaceOnUse">
      <stop offset="0" stop-color="#006089"/>
      <stop offset="1" stop-color="#00babb"/>
      <stop offset="1" stop-color="#6fcbdc"/>
    </linearGradient>
    <clipPath id="clippath-1">
      <path class="cls-4" d="M189.68,254.9c13.78,51.02,50.4,92.79,99.19,113.13-54.04-27.72-88.3-83.06-89.03-143.79-.73-60.73,32.2-116.88,85.56-145.88-25.17,3.94-47.98,14.15-66.97,28.87-31.91,42.13-42.52,96.66-28.74,147.68"/>
    </clipPath>
    <linearGradient id="linear-gradient-4" x1="217.53" y1="262.23" x2="262.07" y2="145.1" xlink:href="#linear-gradient-3"/>
    <linearGradient id="linear-gradient-5" x1="70.44" y1="173.43" x2="142.43" y2="173.43" xlink:href="#linear-gradient"/>
    <linearGradient id="linear-gradient-6" x1="70.44" y1="173.43" x2="142.43" y2="173.43" xlink:href="#linear-gradient"/>
    <clipPath id="clippath-2">
      <path class="cls-10" d="M100.97,83.86c14.52,39.63,18.07,73.54,10.63,101.71-1.77,22.83-13.07,48.28-41.17,77.42,116.37-46.15,64.69-115.62,30.53-179.14"/>
    </clipPath>
    <linearGradient id="linear-gradient-7" x1="95.21" y1="263.03" x2="140.79" y2="140.8" xlink:href="#linear-gradient"/>
    <linearGradient id="linear-gradient-8" x1="60.04" y1="94.77" x2="115.38" y2="94.77" xlink:href="#linear-gradient-3"/>
    <linearGradient id="linear-gradient-9" x1="60.04" y1="94.77" x2="115.38" y2="94.77" xlink:href="#linear-gradient-3"/>
    <clipPath id="clippath-3">
      <path class="cls-8" d="M111.6,185.58c7.43-28.18,3.89-62.08-10.63-101.71-15.47-28.76-27.34-56.3-18.39-79.89-66.15,57.99,34.96,105.07,29.02,181.61"/>
    </clipPath>
    <linearGradient id="linear-gradient-10" x1="71.1" y1="127.9" x2="62.67" y2="44.91" xlink:href="#linear-gradient-3"/>
    <linearGradient id="linear-gradient-11" x1="136.51" y1="58.22" x2="201.03" y2="58.22" xlink:href="#linear-gradient-3"/>
    <linearGradient id="linear-gradient-12" x1="546.53" y1="276.27" x2="840.61" y2="276.27" xlink:href="#linear-gradient-3"/>
  </defs>
  <g>
    <path class="cls-14" d="M161.69,224.69c.87,72.74,55.04,133.81,127.17,143.34-48.78-20.33-85.4-62.1-99.19-113.13-13.78-51.02-3.17-105.55,28.74-147.68-35.24,27.32-57.29,70.2-56.73,117.47"/>
    <g class="cls-19">
      <rect class="cls-6" x="161.13" y="107.22" width="127.73" height="260.81"/>
    </g>
  </g>
  <g>
    <path class="cls-17" d="M189.68,254.9c13.78,51.02,50.4,92.79,99.19,113.13-54.04-27.72-88.3-83.06-89.03-143.79-.73-60.73,32.2-116.88,85.56-145.88-25.17,3.94-47.98,14.15-66.97,28.87-31.91,42.13-42.52,96.66-28.74,147.68"/>
    <g class="cls-18">
      <rect class="cls-12" x="175.89" y="78.35" width="112.97" height="289.68"/>
    </g>
  </g>
  <g>
    <path class="cls-15" d="M100.97,83.86c14.52,39.63,18.07,73.54,10.63,101.71-1.77,22.83-13.07,48.28-41.17,77.42,116.37-46.15,64.69-115.62,30.53-179.14"/>
    <g class="cls-13">
      <rect class="cls-7" x="70.44" y="83.86" width="116.37" height="179.14"/>
    </g>
  </g>
  <g>
    <path class="cls-16" d="M111.6,185.58c7.43-28.18,3.89-62.08-10.63-101.71-15.47-28.76-27.34-56.3-18.39-79.89-66.15,57.99,34.96,105.07,29.02,181.61"/>
    <g class="cls-20">
      <rect class="cls-11" x="16.43" y="3.97" width="102.6" height="181.61"/>
    </g>
  </g>
  <circle class="cls-3" cx="168.77" cy="58.22" r="32.26"/>
  <g>
    <path class="cls-2" d="M300.46,227.5c-2.51,0-4.38-.72-5.6-2.16s-1.64-3.42-1.27-5.93l9.97-63.16c.37-2.29,1.24-4.01,2.6-5.15,1.37-1.14,3.2-1.72,5.49-1.72h25.15c5.76,0,10.45.79,14.07,2.38,3.62,1.59,6.28,3.77,7.98,6.54,1.7,2.77,2.55,5.97,2.55,9.58,0,5.61-1.77,10.23-5.32,13.85-3.54,3.62-8.2,5.87-13.96,6.76v-1.77c4.88.89,8.68,2.88,11.41,5.98,2.73,3.1,4.1,6.94,4.1,11.52,0,7.61-2.51,13.39-7.53,17.34-5.02,3.95-11.97,5.93-20.83,5.93h-28.81ZM307.55,216.75h21.05c5.1,0,8.92-1.14,11.47-3.43,2.55-2.29,3.82-5.58,3.82-9.86,0-3.4-1.13-5.95-3.38-7.65-2.25-1.7-5.52-2.55-9.81-2.55h-19.39l-3.77,23.49ZM313.09,182.51h18.95c4.95,0,8.79-1.11,11.52-3.32,2.73-2.22,4.1-5.43,4.1-9.64,0-3.03-1.05-5.36-3.16-6.98-2.11-1.62-5.41-2.44-9.92-2.44h-17.95l-3.54,22.38Z"/>
    <path class="cls-2" d="M385.66,228.61c-3.32,0-6.35-.76-9.09-2.27-2.73-1.51-4.93-3.53-6.59-6.04-1.66-2.51-2.49-5.32-2.49-8.42,0-3.84,1.07-6.96,3.21-9.36,2.14-2.4,5.47-4.19,9.97-5.37,4.5-1.18,10.27-1.77,17.29-1.77h8.86l-1.22,7.98h-6.98c-4.36,0-7.83.22-10.42.66-2.59.44-4.43,1.22-5.54,2.33s-1.66,2.66-1.66,4.65c0,2.59.87,4.58,2.6,5.98,1.73,1.4,3.86,2.11,6.37,2.11,2.36,0,4.5-.5,6.43-1.5,1.92-1,3.55-2.44,4.88-4.32,1.33-1.88,2.18-4.12,2.55-6.7l2.1-13.19c.59-3.47.06-6.13-1.61-7.98-1.66-1.84-4.56-2.77-8.7-2.77-2.44,0-4.8.24-7.09.72-2.29.48-4.65,1.27-7.09,2.38-1.4.59-2.66.78-3.77.55-1.11-.22-2.01-.72-2.71-1.5-.7-.78-1.09-1.7-1.16-2.77-.07-1.07.24-2.12.94-3.16.7-1.03,1.86-1.92,3.49-2.66,3.1-1.4,6.33-2.42,9.7-3.05,3.36-.63,6.52-.94,9.47-.94,5.83,0,10.42,1.07,13.74,3.21,3.32,2.14,5.58,5.06,6.76,8.75,1.18,3.69,1.4,7.91.67,12.63l-3.88,24.71c-.3,2.29-1.09,4.01-2.38,5.15-1.29,1.14-3.01,1.72-5.15,1.72-1.99,0-3.49-.65-4.49-1.94-1-1.29-1.31-3.19-.94-5.71l1.11-6.98.78,2.22c-1.04,2.88-2.49,5.26-4.38,7.15-1.88,1.88-3.99,3.27-6.32,4.16s-4.75,1.33-7.26,1.33Z"/>
    <path class="cls-2" d="M434.64,228.39c-2.21,0-3.82-.68-4.82-2.05-1-1.37-1.31-3.31-.94-5.82l6.54-41.44c.37-2.22,1.22-3.88,2.55-4.99,1.33-1.11,3.06-1.66,5.21-1.66s3.71.66,4.71,1.99c1,1.33,1.31,3.25.94,5.76l-1,6.21h-1.11c1.48-4.36,3.91-7.74,7.31-10.14,3.4-2.4,7.42-3.75,12.08-4.04,2.07-.15,3.45.15,4.16.89.7.74,1.05,1.96,1.05,3.66,0,2.44-.55,4.23-1.66,5.37-1.11,1.15-2.84,1.83-5.21,2.05l-3.21.33c-4.95.52-8.5,2.01-10.64,4.49-2.14,2.48-3.58,5.93-4.32,10.36l-3.55,22.38c-.3,2.22-1.13,3.88-2.49,4.99-1.37,1.11-3.23,1.66-5.6,1.66Z"/>
    <path class="cls-2" d="M477.96,228.39c-2.14,0-3.71-.72-4.71-2.16s-1.31-3.42-.94-5.93l6.54-41c.37-2.29,1.22-4.01,2.55-5.15,1.33-1.14,3.14-1.72,5.43-1.72,2.14,0,3.71.7,4.71,2.1,1,1.4,1.31,3.4.94,5.98l-6.54,41c-.37,2.29-1.2,4.01-2.49,5.15-1.29,1.14-3.12,1.72-5.48,1.72ZM488.6,162.24c-2.51,0-4.38-.61-5.6-1.83-1.22-1.22-1.72-2.94-1.5-5.15.29-2.51,1.25-4.41,2.88-5.71,1.62-1.29,3.8-1.94,6.54-1.94,2.51,0,4.39.61,5.65,1.83,1.26,1.22,1.74,2.94,1.44,5.15-.3,2.51-1.24,4.42-2.83,5.71-1.59,1.29-3.79,1.94-6.59,1.94Z"/>
    <path class="cls-2" d="M517.96,228.61c-3.32,0-6.35-.76-9.09-2.27-2.73-1.51-4.93-3.53-6.59-6.04-1.66-2.51-2.49-5.32-2.49-8.42,0-3.84,1.07-6.96,3.21-9.36,2.14-2.4,5.46-4.19,9.97-5.37,4.5-1.18,10.27-1.77,17.29-1.77h8.86l-1.22,7.98h-6.98c-4.36,0-7.83.22-10.42.66-2.59.44-4.43,1.22-5.54,2.33-1.11,1.11-1.66,2.66-1.66,4.65,0,2.59.87,4.58,2.6,5.98,1.73,1.4,3.86,2.11,6.37,2.11,2.36,0,4.5-.5,6.43-1.5s3.55-2.44,4.88-4.32c1.33-1.88,2.18-4.12,2.55-6.7l2.11-13.19c.59-3.47.06-6.13-1.61-7.98-1.66-1.84-4.56-2.77-8.7-2.77-2.44,0-4.8.24-7.09.72-2.29.48-4.65,1.27-7.09,2.38-1.4.59-2.66.78-3.77.55-1.11-.22-2.01-.72-2.71-1.5-.7-.78-1.09-1.7-1.16-2.77-.08-1.07.24-2.12.94-3.16.7-1.03,1.86-1.92,3.49-2.66,3.1-1.4,6.33-2.42,9.7-3.05,3.36-.63,6.52-.94,9.47-.94,5.83,0,10.42,1.07,13.74,3.21,3.32,2.14,5.58,5.06,6.76,8.75,1.18,3.69,1.4,7.91.67,12.63l-3.88,24.71c-.3,2.29-1.09,4.01-2.38,5.15-1.29,1.14-3.01,1.72-5.15,1.72-1.99,0-3.49-.65-4.49-1.94-1-1.29-1.31-3.19-.94-5.71l1.11-6.98.78,2.22c-1.04,2.88-2.49,5.26-4.38,7.15s-3.99,3.27-6.32,4.16c-2.33.89-4.75,1.33-7.26,1.33Z"/>
    <path class="cls-2" d="M585.77,228.61c-4.8,0-8.75-.91-11.86-2.71-3.1-1.81-5.26-4.3-6.48-7.48-1.22-3.17-1.5-6.87-.83-11.08l3.77-23.6h-4.88c-1.77,0-3.16-.39-4.16-1.16s-1.5-1.86-1.5-3.27c0-1.92.63-3.4,1.88-4.43,1.25-1.03,2.95-1.55,5.1-1.55h5.21l1.66-10.64c.37-2.14,1.18-3.75,2.44-4.82,1.25-1.07,2.95-1.61,5.1-1.61,2.36,0,4.06.67,5.1,2,1.03,1.33,1.37,3.21,1,5.65l-1.44,9.42h10.86c1.85,0,3.27.35,4.27,1.05,1,.7,1.5,1.79,1.5,3.27,0,1.77-.57,3.23-1.72,4.38-1.15,1.15-2.71,1.72-4.71,1.72h-11.86l-3.66,22.71c-.59,3.84-.11,6.59,1.44,8.25,1.55,1.66,3.73,2.49,6.54,2.49,1.33,0,2.38-.11,3.16-.33s1.53-.33,2.27-.33c1.03,0,1.79.28,2.27.83.48.55.72,1.57.72,3.05,0,2.51-.41,4.25-1.22,5.21-.81.96-1.92,1.66-3.32,2.11-.89.29-1.96.52-3.21.67-1.26.15-2.4.22-3.43.22Z"/>
    <path class="cls-2" d="M609.48,228.39c-2.22,0-3.82-.68-4.82-2.05-1-1.37-1.31-3.31-.94-5.82l6.54-41.44c.37-2.22,1.22-3.88,2.55-4.99,1.33-1.11,3.06-1.66,5.21-1.66s3.71.66,4.71,1.99c1,1.33,1.31,3.25.94,5.76l-1,6.21h-1.11c1.48-4.36,3.91-7.74,7.31-10.14,3.4-2.4,7.42-3.75,12.08-4.04,2.07-.15,3.45.15,4.16.89.7.74,1.05,1.96,1.05,3.66,0,2.44-.55,4.23-1.66,5.37-1.11,1.15-2.84,1.83-5.21,2.05l-3.21.33c-4.95.52-8.5,2.01-10.64,4.49-2.14,2.48-3.58,5.93-4.32,10.36l-3.55,22.38c-.3,2.22-1.13,3.88-2.49,4.99-1.37,1.11-3.23,1.66-5.6,1.66Z"/>
    <path class="cls-2" d="M652.8,228.39c-2.14,0-3.71-.72-4.71-2.16s-1.31-3.42-.94-5.93l6.54-41c.37-2.29,1.22-4.01,2.55-5.15,1.33-1.14,3.14-1.72,5.43-1.72,2.14,0,3.71.7,4.71,2.1,1,1.4,1.31,3.4.94,5.98l-6.54,41c-.37,2.29-1.2,4.01-2.49,5.15-1.29,1.14-3.12,1.72-5.48,1.72ZM663.44,162.24c-2.51,0-4.38-.61-5.6-1.83-1.22-1.22-1.72-2.94-1.5-5.15.29-2.51,1.25-4.41,2.88-5.71,1.62-1.29,3.8-1.94,6.54-1.94,2.51,0,4.39.61,5.65,1.83,1.26,1.22,1.74,2.94,1.44,5.15-.3,2.51-1.24,4.42-2.83,5.71-1.59,1.29-3.79,1.94-6.59,1.94Z"/>
    <path class="cls-2" d="M701.33,228.61c-5.76,0-10.54-1.04-14.35-3.1-3.8-2.07-6.67-4.97-8.59-8.7-1.92-3.73-2.88-8.03-2.88-12.91,0-3.99.61-7.88,1.83-11.69,1.22-3.8,3.08-7.2,5.6-10.19,2.51-2.99,5.71-5.37,9.58-7.15,3.88-1.77,8.44-2.66,13.68-2.66,2.66,0,5.28.31,7.87.94,2.58.63,4.88,1.46,6.87,2.49,1.48.81,2.49,1.76,3.05,2.83.55,1.07.74,2.16.55,3.27-.19,1.11-.61,2.07-1.27,2.88-.66.81-1.51,1.35-2.55,1.61-1.04.26-2.14.06-3.32-.61-1.7-.96-3.38-1.64-5.04-2.05-1.66-.41-3.42-.61-5.26-.61-3.18,0-5.87.59-8.09,1.77-2.22,1.18-4.01,2.79-5.37,4.82-1.37,2.03-2.37,4.27-2.99,6.7-.63,2.44-.94,4.95-.94,7.54,0,4.21,1.05,7.61,3.16,10.19,2.1,2.59,5.59,3.88,10.47,3.88,1.4,0,2.9-.18,4.49-.55,1.59-.37,3.27-1.03,5.04-2,1.03-.52,2.03-.66,2.99-.44.96.22,1.77.72,2.44,1.5.66.78,1.09,1.66,1.27,2.66.18,1,.06,2.01-.39,3.05-.44,1.04-1.33,1.96-2.66,2.77-1.92,1.18-4.32,2.11-7.2,2.77-2.88.67-5.54,1-7.98,1Z"/>
  </g>
  <g>
    <path class="cls-2" d="M303.91,292.58c-1.62,0-3.23-.11-4.82-.33-1.59-.22-3.12-.6-4.6-1.14-1.48-.54-2.84-1.23-4.1-2.08-.55-.33-.93-.76-1.14-1.27-.2-.52-.25-1.03-.14-1.52.11-.5.33-.93.66-1.3s.77-.59,1.3-.67c.53-.07,1.12.07,1.74.44,1.77,1.11,3.63,1.88,5.57,2.33,1.94.44,3.94.66,6.01.66,2.77,0,5-.56,6.68-1.69,1.68-1.13,2.52-2.65,2.52-4.57,0-1.37-.5-2.53-1.5-3.49-1-.96-2.71-1.7-5.15-2.22l-5.87-1.44c-2.62-.63-4.72-1.73-6.29-3.3-1.57-1.57-2.35-3.74-2.35-6.51,0-1.85.39-3.51,1.16-4.99.78-1.48,1.87-2.74,3.27-3.79,1.4-1.05,3.01-1.85,4.82-2.38,1.81-.54,3.73-.8,5.76-.8s4.22.29,6.45.86,4.22,1.52,5.96,2.85c.52.37.86.81,1.02,1.33.17.52.19,1.02.08,1.52-.11.5-.33.91-.67,1.22-.33.31-.77.49-1.3.53-.54.04-1.17-.17-1.91-.61-1.37-.96-2.91-1.67-4.62-2.13-1.72-.46-3.43-.69-5.12-.69s-3.35.28-4.74.83c-1.39.55-2.48,1.32-3.27,2.3-.79.98-1.19,2.15-1.19,3.52,0,1.66.44,2.9,1.33,3.71.89.81,2.2,1.44,3.93,1.88l5.87,1.44c3.4.78,5.92,1.99,7.56,3.66s2.47,3.68,2.47,6.04c0,1.96-.41,3.68-1.22,5.15-.81,1.48-1.93,2.71-3.35,3.68-1.42.98-3.06,1.72-4.9,2.22-1.85.5-3.82.75-5.93.75Z"/>
    <path class="cls-2" d="M340.54,292.58c-2.48,0-4.67-.35-6.59-1.05-1.92-.7-3.51-1.77-4.76-3.21-1.26-1.44-2.11-3.24-2.58-5.4-.46-2.16-.45-4.68.03-7.56l3.16-20.05c.15-.92.49-1.6,1.02-2.02.54-.42,1.25-.64,2.13-.64.96,0,1.65.27,2.08.8.42.54.56,1.32.42,2.35l-3.16,20.06c-.63,3.88-.21,6.81,1.25,8.78s3.91,2.96,7.34,2.96,6.01-.85,7.95-2.55c1.94-1.7,3.2-4.43,3.79-8.2l3.44-21.55c.15-.92.49-1.6,1.02-2.02.54-.42,1.25-.64,2.13-.64s1.6.27,2.02.8c.42.54.56,1.32.42,2.35l-3.32,21.11c-.55,3.43-1.55,6.32-2.99,8.64-1.44,2.33-3.38,4.08-5.82,5.26-2.44,1.18-5.43,1.77-8.98,1.77Z"/>
    <path class="cls-2" d="M367.68,292.47c-.89,0-1.54-.3-1.97-.89-.42-.59-.54-1.42-.36-2.49l5.26-33.19c.15-.96.5-1.68,1.05-2.16.55-.48,1.31-.72,2.27-.72h11.63c4.25,0,7.46.95,9.64,2.85,2.18,1.9,3.27,4.5,3.27,7.78,0,2.73-.63,5-1.88,6.81-1.26,1.81-2.97,3.16-5.15,4.04-2.18.89-4.67,1.31-7.48,1.27v-.78h1.16c1.66,0,3.03.48,4.1,1.44,1.07.96,1.94,2.29,2.6,3.99l3.16,8.31c.3.78.41,1.44.33,1.99-.07.55-.32.98-.75,1.27-.42.3-1.04.44-1.86.44s-1.39-.19-1.86-.58c-.46-.39-.86-1.02-1.19-1.91l-3.77-9.92c-.55-1.48-1.28-2.53-2.19-3.16-.91-.63-2.19-.94-3.85-.94h-6.76l-2.11,13.68c-.15.92-.5,1.63-1.05,2.11-.55.48-1.31.72-2.27.72ZM373.83,271.64h10.3c2.77,0,4.92-.66,6.45-1.97,1.53-1.31,2.3-3.17,2.3-5.57,0-2.18-.65-3.8-1.94-4.88-1.29-1.07-3.32-1.61-6.09-1.61h-8.81l-2.22,14.02Z"/>
    <path class="cls-2" d="M421.48,292.58c-3.62,0-6.76-.65-9.42-1.94-2.66-1.29-4.72-3.21-6.18-5.76s-2.19-5.67-2.19-9.36c0-3.4.48-6.49,1.44-9.28.96-2.79,2.35-5.22,4.16-7.29,1.81-2.07,4.01-3.66,6.59-4.76,2.58-1.11,5.52-1.66,8.81-1.66,2.33,0,4.5.3,6.51.89,2.01.59,3.74,1.44,5.18,2.55.59.41.97.89,1.14,1.44.17.55.17,1.1.03,1.63-.15.54-.41.99-.78,1.36-.37.37-.81.58-1.33.64-.52.06-1.07-.12-1.66-.53-1.29-1.03-2.72-1.78-4.29-2.24-1.57-.46-3.28-.69-5.12-.69-3.07,0-5.69.76-7.87,2.27s-3.85,3.6-5.01,6.26-1.75,5.73-1.75,9.2c0,4.17,1.07,7.27,3.21,9.28,2.14,2.01,5.22,3.02,9.25,3.02,1.66,0,3.22-.15,4.68-.44,1.46-.29,2.85-.68,4.18-1.16l-1.55,2.66,2.11-12.91h-7.15c-.74,0-1.33-.17-1.77-.5-.44-.33-.67-.79-.67-1.38,0-.78.25-1.38.75-1.8s1.15-.64,1.97-.64h9.53c.89,0,1.54.24,1.97.72.42.48.56,1.16.42,2.05l-2.16,13.96c-.15.7-.38,1.27-.69,1.69-.31.43-.8.77-1.47,1.03-1.44.55-3.14.98-5.1,1.27-1.96.29-3.88.44-5.76.44Z"/>
    <path class="cls-2" d="M445.96,292.09c-1.07,0-1.86-.29-2.35-.86-.5-.57-.67-1.39-.53-2.47l5.26-32.91c.15-.96.5-1.67,1.05-2.13s1.29-.69,2.22-.69h20.06c.78,0,1.38.16,1.8.47.42.31.64.77.64,1.36,0,.92-.25,1.63-.75,2.11-.5.48-1.15.72-1.97.72h-17.84l-1.94,12.24h16.23c.78,0,1.37.16,1.77.47.41.31.61.79.61,1.41,0,.89-.25,1.57-.75,2.05-.5.48-1.16.72-1.97.72h-16.62l-2.11,12.85h17.4c.78,0,1.38.16,1.8.47.42.31.64.79.64,1.41,0,.89-.25,1.57-.75,2.05-.5.48-1.16.72-1.97.72h-19.94Z"/>
    <path class="cls-2" d="M478.04,292.47c-.89,0-1.54-.3-1.97-.89-.42-.59-.54-1.42-.36-2.49l5.26-33.19c.15-.96.5-1.68,1.05-2.16.55-.48,1.31-.72,2.27-.72h11.63c4.25,0,7.46.95,9.64,2.85,2.18,1.9,3.27,4.5,3.27,7.78,0,2.73-.63,5-1.88,6.81-1.26,1.81-2.97,3.16-5.15,4.04-2.18.89-4.67,1.31-7.48,1.27v-.78h1.16c1.66,0,3.03.48,4.1,1.44,1.07.96,1.94,2.29,2.6,3.99l3.16,8.31c.29.78.41,1.44.33,1.99-.07.55-.32.98-.75,1.27-.42.3-1.04.44-1.86.44s-1.39-.19-1.86-.58c-.46-.39-.86-1.02-1.19-1.91l-3.77-9.92c-.55-1.48-1.28-2.53-2.19-3.16-.91-.63-2.19-.94-3.85-.94h-6.76l-2.11,13.68c-.15.92-.5,1.63-1.05,2.11-.55.48-1.31.72-2.27.72ZM484.19,271.64h10.3c2.77,0,4.92-.66,6.46-1.97,1.53-1.31,2.3-3.17,2.3-5.57,0-2.18-.65-3.8-1.94-4.88s-3.32-1.61-6.09-1.61h-8.81l-2.22,14.02Z"/>
    <path class="cls-2" d="M524.46,292.47c-.92,0-1.58-.3-1.97-.89-.39-.59-.51-1.4-.36-2.44l2.71-17.23.61,3.66-10.47-18.84c-.41-.74-.58-1.41-.53-2.02.06-.61.31-1.11.78-1.5.46-.39,1.08-.58,1.86-.58.7,0,1.26.16,1.69.47.42.31.86.86,1.3,1.63l8.31,15.01h-1.33l13.46-15.4c.55-.66,1.06-1.12,1.52-1.36.46-.24,1.03-.36,1.69-.36.7,0,1.27.2,1.72.61s.67.92.67,1.55-.28,1.27-.83,1.94l-16.57,18.84,1.83-3.66-2.83,17.73c-.3,1.88-1.38,2.83-3.27,2.83Z"/>
  </g>
  <g>
    <path class="cls-2" d="M315.94,128.96c-3,0-5.56-.65-7.7-1.94s-3.78-3.14-4.92-5.54c-1.14-2.4-1.71-5.27-1.71-8.59,0-2.49.32-4.73.96-6.7s1.57-3.65,2.8-5.03c1.23-1.38,2.75-2.44,4.54-3.18,1.79-.74,3.8-1.11,6.03-1.11,1.96,0,3.78.28,5.47.85,1.69.56,3.14,1.4,4.36,2.49.3.27.49.55.58.85.09.3.1.57.02.82s-.21.46-.42.62-.45.24-.73.22-.59-.16-.91-.42c-1.13-.98-2.38-1.71-3.76-2.18-1.38-.47-2.9-.71-4.56-.71-2.46,0-4.55.53-6.25,1.58-1.71,1.05-3,2.59-3.87,4.61s-1.31,4.45-1.31,7.3.44,5.33,1.31,7.34c.88,2.02,2.17,3.55,3.87,4.61,1.71,1.05,3.79,1.58,6.25,1.58,1.63,0,3.14-.25,4.54-.73,1.39-.49,2.67-1.22,3.83-2.2.33-.27.63-.4.91-.4s.52.08.71.25c.19.16.33.37.42.62.09.25.1.51.02.78-.07.27-.25.52-.51.76-1.28,1.16-2.75,2.03-4.43,2.6-1.68.58-3.52.87-5.54.87Z"/>
    <path class="cls-2" d="M338.47,128.87c-.42,0-.74-.13-.98-.38-.24-.25-.36-.6-.36-1.05v-29.07c0-.47.12-.83.36-1.07.24-.24.56-.36.98-.36.45,0,.79.12,1.02.36s.36.59.36,1.07v13.09h20.03v-13.09c0-.47.12-.83.36-1.07s.58-.36,1.02-.36c.41,0,.74.12.98.36.24.24.36.59.36,1.07v29.07c0,.45-.12.79-.36,1.05-.24.25-.56.38-.98.38-.45,0-.79-.13-1.02-.38s-.36-.6-.36-1.05v-13.53h-20.03v13.53c0,.45-.11.79-.33,1.05s-.57.38-1.05.38Z"/>
    <path class="cls-2" d="M376.75,128.6c-.48,0-.85-.13-1.11-.4-.27-.27-.4-.65-.4-1.16v-28.26c0-.5.13-.89.4-1.16.27-.27.64-.4,1.11-.4h16.83c.42,0,.73.1.94.31.21.21.31.49.31.85,0,.42-.1.72-.31.91-.21.19-.52.29-.94.29h-15.67v11.93h14.78c.42,0,.73.1.94.29.21.19.31.48.31.87s-.1.68-.31.89c-.21.21-.52.31-.94.31h-14.78v12.38h15.67c.42,0,.73.1.94.29.21.19.31.48.31.87s-.1.68-.31.89c-.21.21-.52.31-.94.31h-16.83Z"/>
    <path class="cls-2" d="M414.67,128.96c-1.42,0-2.8-.12-4.14-.36s-2.57-.6-3.72-1.09c-1.14-.49-2.17-1.09-3.09-1.8-.3-.21-.5-.45-.6-.73-.1-.28-.12-.55-.04-.8.07-.25.21-.47.4-.65.19-.18.42-.27.69-.29.27-.01.55.08.85.29,1.37,1.01,2.81,1.75,4.34,2.23,1.53.48,3.3.71,5.32.71,2.82,0,4.93-.55,6.34-1.65,1.41-1.1,2.11-2.54,2.11-4.32,0-1.48-.51-2.64-1.54-3.47-1.02-.83-2.71-1.48-5.05-1.96l-4.5-.93c-2.82-.56-4.91-1.51-6.28-2.85-1.37-1.34-2.05-3.12-2.05-5.34,0-1.36.27-2.6.8-3.72.54-1.11,1.29-2.07,2.27-2.87.98-.8,2.14-1.42,3.49-1.85,1.35-.43,2.84-.65,4.47-.65,1.93,0,3.7.27,5.32.8s3.09,1.38,4.43,2.54c.27.21.45.45.53.74s.09.55,0,.8c-.09.25-.22.45-.4.6-.18.15-.4.23-.67.25-.27.02-.55-.1-.85-.33-1.25-1.01-2.54-1.74-3.9-2.2-1.35-.46-2.84-.69-4.47-.69s-3.11.27-4.34.8c-1.23.53-2.19,1.29-2.87,2.27-.68.98-1.02,2.14-1.02,3.47,0,1.54.47,2.77,1.42,3.69s2.48,1.59,4.58,2l4.54.93c3,.62,5.22,1.55,6.68,2.78s2.18,2.92,2.18,5.05c0,1.28-.26,2.44-.78,3.49-.52,1.05-1.27,1.97-2.25,2.74-.98.77-2.16,1.36-3.54,1.76-1.38.4-2.95.6-4.7.6Z"/>
    <path class="cls-2" d="M444.8,128.87c-.45,0-.79-.13-1.02-.38-.24-.25-.36-.6-.36-1.05v-27.77h-10.64c-.42,0-.74-.12-.98-.36s-.36-.53-.36-.89c0-.38.12-.68.36-.89s.56-.31.98-.31h24.08c.42,0,.73.1.96.31s.33.5.33.89-.11.69-.33.91-.54.33-.96.33h-10.68v27.77c0,.45-.11.79-.33,1.05s-.57.38-1.05.38Z"/>
    <path class="cls-2" d="M468.08,128.6c-.47,0-.85-.13-1.11-.4-.27-.27-.4-.65-.4-1.16v-28.26c0-.5.13-.89.4-1.16.27-.27.64-.4,1.11-.4h16.83c.42,0,.73.1.93.31s.31.49.31.85c0,.42-.1.72-.31.91-.21.19-.52.29-.93.29h-15.67v11.93h14.78c.42,0,.73.1.93.29.21.19.31.48.31.87s-.1.68-.31.89-.52.31-.93.31h-14.78v12.38h15.67c.42,0,.73.1.93.29.21.19.31.48.31.87s-.1.68-.31.89c-.21.21-.52.31-.93.31h-16.83Z"/>
    <path class="cls-2" d="M497.99,128.87c-.42,0-.74-.13-.98-.38-.24-.25-.36-.6-.36-1.05v-28.8c0-.47.13-.83.38-1.07.25-.24.58-.36,1-.36h10.46c3.32,0,5.88.77,7.66,2.31s2.67,3.74,2.67,6.59c0,1.84-.4,3.42-1.2,4.74-.8,1.32-1.98,2.32-3.54,3-1.56.68-3.42,1.02-5.59,1.02l.49-.58h.62c1.13,0,2.11.3,2.96.89s1.61,1.56,2.29,2.89l4.72,8.77c.21.33.3.65.29.96-.02.31-.13.56-.33.76-.21.19-.47.29-.8.29-.39,0-.71-.09-.96-.27-.25-.18-.47-.43-.65-.76l-4.99-9.3c-.77-1.42-1.63-2.37-2.58-2.83-.95-.46-2.23-.69-3.83-.69h-6.37v12.42c0,.45-.11.79-.33,1.05s-.57.38-1.05.38ZM499.37,112.71h8.77c2.64,0,4.62-.56,5.94-1.67,1.32-1.11,1.98-2.75,1.98-4.92s-.66-3.76-1.98-4.87c-1.32-1.11-3.3-1.67-5.94-1.67h-8.77v13.13Z"/>
    <path class="cls-2" d="M532.04,128.87c-.47,0-.85-.13-1.11-.4s-.4-.64-.4-1.11v-28.58c0-.5.13-.89.4-1.16.27-.27.64-.4,1.11-.4h16.42c.38,0,.69.1.91.31s.33.49.33.85c0,.42-.11.72-.33.91-.22.19-.53.29-.91.29h-15.22v11.97h14.33c.39,0,.69.1.91.29s.33.48.33.87-.11.68-.33.89c-.22.21-.53.31-.91.31h-14.33v13.44c0,1.01-.4,1.51-1.2,1.51Z"/>
    <path class="cls-2" d="M560.44,128.87c-.42,0-.74-.13-.98-.38-.24-.25-.36-.6-.36-1.05v-29.07c0-.47.12-.83.36-1.07.24-.24.56-.36.98-.36.45,0,.79.12,1.02.36.24.24.36.59.36,1.07v29.07c0,.45-.11.79-.33,1.05s-.57.38-1.05.38Z"/>
    <path class="cls-2" d="M575.98,128.6c-.47,0-.85-.13-1.11-.4-.27-.27-.4-.65-.4-1.16v-28.26c0-.5.13-.89.4-1.16.27-.27.64-.4,1.11-.4h16.83c.42,0,.73.1.93.31s.31.49.31.85c0,.42-.1.72-.31.91-.21.19-.52.29-.93.29h-15.67v11.93h14.78c.42,0,.73.1.93.29.21.19.31.48.31.87s-.1.68-.31.89-.52.31-.93.31h-14.78v12.38h15.67c.42,0,.73.1.93.29.21.19.31.48.31.87s-.1.68-.31.89c-.21.21-.52.31-.93.31h-16.83Z"/>
    <path class="cls-2" d="M605.93,128.6c-.42,0-.75-.13-1-.38-.25-.25-.38-.6-.38-1.05v-28.75c0-.47.12-.83.36-1.07.24-.24.56-.36.98-.36.45,0,.79.12,1.02.36.24.24.36.59.36,1.07v27.73h15.31c.45,0,.78.1,1,.31.22.21.33.5.33.89,0,.42-.11.73-.33.93-.22.21-.56.31-1,.31h-16.65Z"/>
    <path class="cls-2" d="M634.33,128.6c-.47,0-.85-.13-1.11-.4-.27-.27-.4-.65-.4-1.16v-28.26c0-.5.13-.89.4-1.16.27-.27.64-.4,1.11-.4h8.59c4.99,0,8.83,1.33,11.55,4.01,2.71,2.67,4.07,6.56,4.07,11.66,0,2.55-.35,4.81-1.05,6.77-.7,1.96-1.71,3.6-3.05,4.92-1.33,1.32-2.97,2.32-4.9,3s-4.14,1.02-6.63,1.02h-8.59ZM635.53,126.2h7.17c2.17,0,4.06-.28,5.67-.85,1.62-.56,2.96-1.39,4.03-2.49,1.07-1.1,1.87-2.48,2.4-4.16s.8-3.61.8-5.81c0-4.42-1.08-7.74-3.23-9.95-2.15-2.21-5.38-3.32-9.68-3.32h-7.17v26.57Z"/>
  </g>
  <polygon class="cls-1" points="821.63 299.31 546.53 299.31 565.51 253.24 840.61 253.24 821.63 299.31"/>
  <g>
    <path class="cls-9" d="M567,287.47c-.48,0-.85-.13-1.11-.39s-.39-.63-.39-1.11v-18.16c0-.48.13-.85.39-1.11.26-.26.63-.39,1.11-.39h5.79c3.46,0,6.13.91,8,2.72,1.87,1.81,2.81,4.43,2.81,7.85,0,1.7-.24,3.21-.72,4.53s-1.18,2.43-2.1,3.32c-.92.89-2.05,1.57-3.38,2.04-1.33.47-2.87.71-4.61.71h-5.79ZM568.29,285.1h4.32c1.36,0,2.54-.17,3.54-.51,1-.34,1.83-.85,2.51-1.53.67-.68,1.17-1.54,1.52-2.57.34-1.03.51-2.24.51-3.62,0-2.74-.67-4.79-2.03-6.15-1.35-1.36-3.37-2.04-6.05-2.04h-4.32v16.41Z"/>
    <path class="cls-9" d="M589.29,287.68c-.44,0-.78-.12-1.02-.38s-.36-.6-.36-1.07v-18.52c0-.46.12-.81.38-1.05s.59-.36,1.04-.36h7.14c2.28,0,4.04.54,5.27,1.61s1.85,2.59,1.85,4.55c0,1.28-.28,2.38-.84,3.29-.56.91-1.37,1.61-2.43,2.09s-2.34.72-3.84.72l.3-.42h.66c.8,0,1.5.2,2.09.6.59.4,1.12,1.04,1.58,1.92l2.76,5.07c.18.32.26.63.24.93-.02.3-.13.55-.33.74-.2.19-.49.29-.87.29-.4,0-.72-.08-.96-.25-.24-.17-.45-.42-.63-.77l-3.24-5.94c-.44-.84-.94-1.4-1.5-1.67-.56-.27-1.31-.4-2.25-.4h-3.6v7.59c0,.46-.12.82-.35,1.07-.23.25-.58.38-1.06.38ZM590.7,276.49h5.31c1.6,0,2.8-.33,3.6-1s1.2-1.66,1.2-2.96-.4-2.28-1.2-2.94-2-.99-3.6-.99h-5.31v7.89Z"/>
    <path class="cls-9" d="M609.25,287.59c-.52,0-.95-.17-1.29-.51s-.51-.77-.51-1.29.17-.94.51-1.26c.34-.32.77-.48,1.29-.48.56,0,1,.16,1.31.48.31.32.46.74.46,1.26s-.16.95-.46,1.29c-.31.34-.75.51-1.31.51Z"/>
    <path class="cls-9" d="M622.51,287.74c-.94,0-1.85-.08-2.73-.23-.88-.15-1.71-.38-2.49-.67-.78-.3-1.48-.67-2.1-1.11-.26-.18-.45-.4-.55-.66-.11-.26-.14-.52-.09-.77.05-.25.16-.46.33-.65.17-.18.38-.29.62-.33.24-.04.5.04.78.24.92.62,1.88,1.07,2.9,1.35,1.01.28,2.13.42,3.35.42,1.76,0,3.06-.32,3.89-.96.83-.64,1.25-1.48,1.25-2.52,0-.86-.3-1.54-.9-2.03-.6-.49-1.61-.88-3.03-1.16l-3.18-.66c-1.88-.4-3.29-1.06-4.22-1.98-.93-.92-1.4-2.15-1.4-3.69,0-.94.19-1.8.57-2.57.38-.77.92-1.44,1.62-2,.7-.56,1.53-.99,2.48-1.29.95-.3,2.01-.45,3.17-.45,1.24,0,2.41.17,3.5.51s2.08.84,2.96,1.5c.24.18.4.4.48.65.08.25.09.5.04.74-.05.24-.16.44-.33.6-.17.16-.38.25-.63.27-.25.02-.52-.07-.83-.27-.8-.56-1.62-.96-2.46-1.21-.84-.25-1.76-.38-2.76-.38s-1.91.16-2.66.48c-.75.32-1.33.77-1.74,1.34-.41.57-.62,1.24-.62,2,0,.92.28,1.64.84,2.16.56.52,1.5.92,2.82,1.2l3.15.63c2,.42,3.49,1.07,4.46,1.94.97.87,1.46,2.04,1.46,3.5,0,.92-.19,1.75-.56,2.49s-.9,1.38-1.58,1.91c-.68.53-1.51.94-2.49,1.23-.98.29-2.08.44-3.3.44Z"/>
    <path class="cls-9" d="M642.56,287.74c-1.4,0-2.64-.19-3.71-.56s-1.97-.92-2.69-1.65c-.72-.73-1.27-1.64-1.64-2.73-.37-1.09-.56-2.36-.56-3.8v-11.49c0-.48.12-.83.36-1.07.24-.23.58-.34,1.02-.34s.81.12,1.05.34c.24.23.36.58.36,1.07v11.4c0,2.14.49,3.74,1.47,4.79.98,1.05,2.42,1.58,4.32,1.58s3.34-.53,4.32-1.58c.98-1.05,1.47-2.64,1.47-4.79v-11.4c0-.48.12-.83.36-1.07.24-.23.58-.34,1.02-.34s.78.12,1.02.34c.24.23.36.58.36,1.07v11.49c0,1.9-.33,3.5-.98,4.8-.65,1.3-1.61,2.28-2.88,2.94-1.27.66-2.84.99-4.7.99Z"/>
    <path class="cls-9" d="M657.56,287.47c-.48,0-.85-.13-1.11-.39s-.39-.63-.39-1.11v-18.16c0-.48.13-.85.39-1.11.26-.26.63-.39,1.11-.39h5.79c3.46,0,6.13.91,8,2.72,1.87,1.81,2.81,4.43,2.81,7.85,0,1.7-.24,3.21-.72,4.53s-1.18,2.43-2.1,3.32c-.92.89-2.05,1.57-3.38,2.04-1.33.47-2.87.71-4.61.71h-5.79ZM658.85,285.1h4.32c1.36,0,2.54-.17,3.54-.51,1-.34,1.83-.85,2.51-1.53.67-.68,1.17-1.54,1.52-2.57.34-1.03.51-2.24.51-3.62,0-2.74-.67-4.79-2.03-6.15-1.35-1.36-3.37-2.04-6.05-2.04h-4.32v16.41Z"/>
    <path class="cls-9" d="M679.86,287.68c-.44,0-.78-.12-1.02-.38s-.36-.6-.36-1.07v-18.7c0-.48.12-.84.36-1.08.24-.24.58-.36,1.02-.36s.81.12,1.05.36c.24.24.36.6.36,1.08v8.01h12.24v-8.01c0-.48.12-.84.36-1.08.24-.24.59-.36,1.05-.36s.78.12,1.02.36c.24.24.36.6.36,1.08v18.7c0,.46-.12.82-.36,1.07-.24.25-.58.38-1.02.38-.46,0-.81-.12-1.05-.38s-.36-.6-.36-1.07v-8.31h-12.24v8.31c0,.46-.12.82-.35,1.07-.23.25-.58.38-1.06.38Z"/>
    <path class="cls-9" d="M701.1,287.68c-.36,0-.65-.08-.86-.24-.21-.16-.33-.38-.38-.66-.04-.28.02-.59.18-.93l8.19-18.55c.18-.42.41-.72.69-.92s.59-.29.93-.29.64.09.92.29c.27.19.5.5.71.92l8.19,18.55c.16.34.23.66.2.95s-.15.51-.35.66c-.2.15-.48.22-.84.22-.4,0-.72-.1-.96-.32-.24-.21-.45-.51-.63-.92l-2.13-4.98,1.29.72h-12.84l1.29-.72-2.13,4.98c-.18.44-.38.76-.6.95-.22.19-.51.29-.87.29ZM709.81,269.47l-4.68,11.07-.72-.63h10.86l-.69.63-4.71-11.07h-.06Z"/>
    <path class="cls-9" d="M724.78,287.68c-.44,0-.78-.12-1.02-.38s-.36-.6-.36-1.07v-18.73c0-.46.12-.81.36-1.05.24-.24.58-.36,1.02-.36s.81.12,1.05.36c.24.24.36.59.36,1.05v8.37h.06l9.48-9.03c.28-.26.54-.45.79-.57s.53-.18.83-.18c.42,0,.72.1.92.31.19.21.27.46.23.75-.04.29-.19.57-.45.83l-9.9,9.3.03-1.41,10.35,9.72c.32.3.49.62.51.95.02.33-.08.6-.29.81-.21.21-.53.32-.95.32-.34,0-.63-.07-.86-.21-.23-.14-.5-.36-.79-.66l-9.9-9.27h-.06v8.7c0,.46-.12.82-.35,1.07-.23.25-.58.38-1.06.38Z"/>
    <path class="cls-9" d="M741.32,287.68c-.36,0-.65-.08-.86-.24-.21-.16-.33-.38-.38-.66-.04-.28.02-.59.18-.93l8.19-18.55c.18-.42.41-.72.69-.92s.59-.29.93-.29.64.09.92.29c.27.19.5.5.71.92l8.19,18.55c.16.34.23.66.2.95s-.15.51-.35.66c-.2.15-.48.22-.84.22-.4,0-.72-.1-.96-.32-.24-.21-.45-.51-.63-.92l-2.13-4.98,1.29.72h-12.84l1.29-.72-2.13,4.98c-.18.44-.38.76-.6.95-.22.19-.51.29-.87.29ZM750.02,269.47l-4.68,11.07-.72-.63h10.86l-.69.63-4.71-11.07h-.06Z"/>
    <path class="cls-9" d="M764.99,287.68c-.44,0-.78-.12-1.02-.38s-.36-.6-.36-1.07v-18.52c0-.46.12-.81.38-1.05s.59-.36,1.04-.36h7.14c2.28,0,4.04.54,5.27,1.61s1.85,2.59,1.85,4.55c0,1.28-.28,2.38-.84,3.29-.56.91-1.37,1.61-2.43,2.09s-2.34.72-3.84.72l.3-.42h.66c.8,0,1.5.2,2.09.6.59.4,1.12,1.04,1.58,1.92l2.76,5.07c.18.32.26.63.24.93-.02.3-.13.55-.33.74-.2.19-.49.29-.87.29-.4,0-.72-.08-.96-.25-.24-.17-.45-.42-.63-.77l-3.24-5.94c-.44-.84-.94-1.4-1.5-1.67-.56-.27-1.31-.4-2.25-.4h-3.6v7.59c0,.46-.12.82-.35,1.07-.23.25-.58.38-1.06.38ZM766.4,276.49h5.31c1.6,0,2.8-.33,3.6-1s1.2-1.66,1.2-2.96-.4-2.28-1.2-2.94-2-.99-3.6-.99h-5.31v7.89Z"/>
    <path class="cls-9" d="M783.15,287.68c-.36,0-.65-.08-.86-.24-.21-.16-.33-.38-.38-.66-.04-.28.02-.59.18-.93l8.19-18.55c.18-.42.41-.72.69-.92s.59-.29.93-.29.64.09.92.29c.27.19.5.5.71.92l8.19,18.55c.16.34.23.66.2.95s-.15.51-.35.66c-.2.15-.48.22-.84.22-.4,0-.72-.1-.96-.32-.24-.21-.45-.51-.63-.92l-2.13-4.98,1.29.72h-12.84l1.29-.72-2.13,4.98c-.18.44-.38.76-.6.95-.22.19-.51.29-.87.29ZM791.85,269.47l-4.68,11.07-.72-.63h10.86l-.69.63-4.71-11.07h-.06Z"/>
    <path class="cls-9" d="M806.73,287.68c-.4,0-.71-.12-.95-.36-.23-.24-.34-.57-.34-.99v-18.82c0-.46.11-.81.33-1.05.22-.24.51-.36.87-.36.34,0,.6.06.78.18s.38.33.6.63l12.72,16.86h-.75v-16.32c0-.44.11-.78.34-1.01s.55-.34.98-.34.74.12.96.34c.22.23.33.57.33,1.01v18.88c0,.42-.1.75-.32.99-.21.24-.49.36-.83.36-.32,0-.58-.07-.79-.2s-.42-.34-.65-.64l-12.69-16.87h.69v16.35c0,.42-.11.75-.33.99-.22.24-.54.36-.96.36Z"/>
  </g>
</svg>